<?xml version="1.0" encoding="UTF-8"?>
<svg id="Layer_1" data-name="Layer 1" xmlns="http://www.w3.org/2000/svg" viewBox="0 0 200 200">
  <defs>
    <style>
      .cls-1, .cls-2, .cls-3, .cls-4, .cls-5, .cls-6, .cls-7 {
        stroke-width: .86px;
      }

      .cls-1, .cls-2, .cls-4, .cls-8, .cls-5, .cls-6, .cls-7 {
        fill: none;
      }

      .cls-1, .cls-2, .cls-4, .cls-7 {
        stroke: #000;
      }

      .cls-1, .cls-3, .cls-4 {
        stroke-miterlimit: 10;
      }

      .cls-1, .cls-6, .cls-7 {
        stroke-linecap: round;
      }

      .cls-2, .cls-5 {
        stroke-linecap: square;
        stroke-linejoin: bevel;
      }

      .cls-3, .cls-5, .cls-6 {
        stroke: #fff;
      }

      .cls-9 {
        fill: #fc0;
      }

      .cls-6, .cls-7 {
        stroke-linejoin: round;
      }
    </style>
  </defs>
  <g>
    <path class="cls-8" d="m88.6,49.89c3.08-.09,6.91-.8,10.19-1.75,4.32-1.25,7.67-2.93,7.04-4.17-.62-1.21-4.72.13-8.81,1.83-2.1-2.2-4.58-3.19-6.89-.61-.98,1.09-1.47,2.66-1.61,4.55l.03.02s-.02.12.05.12Z"/>
    <path class="cls-8" d="m170.85,121.05h0c-1.93-1.91-4.02-.93-5.4.66-2.88,3.31-8.1,6.06-8.7,6.63l-5.27,7.49-.07-.05,5.08-7.33s-20.65-15.12-28.08-19.53c-7.83-4.64-16.48-5.42-37.38,2.08h-.03c-1.69-3.64-5.45-7.94-4.97-21.62h.04s11.01,13.14,16.5,10.84c5.5-2.31,11.49-24.67,11.49-24.67h-.14s0-.09,0-.09c.27-.84,2.52-3.19,4.42-4.29.98-.56,2.08-.92,2.7-1.35.39-.27.57-1.06-.13-1.33l.28-.09c.24-.16.42-.63.33-.91-.18-.58-1.12-.74-2.29-.58l-.03-.23c-.25-.94-1.39-.75-1.9-.67-2.76.44-6.43,3.25-6.64,3.94l-.28.07c-.41-.33-.85-.46-.88-.53-.11-.25,1.24-3.01-.05-3.3-.49-.11-.94.43-1.14.8-.38.74-1.32,3.66-.51,8.31v.04s-.28,0-.28,0c-4.45,10.99-7.74,15.55-8.05,15.54-.31,0-8.91-13.06-12.03-14.49-1.81-.83-7.9-1.05-7.9-1.05.03-.6-.77-1.7-1.71-2.03l.04-.1c-.95-2-1.09-4.78-1.61-7.03.18-.03.35-.08.51-.15,1.39-.55,6.29-8.35,5.41-11.81-.95-3.71-5.87-13.15-11.96-8.16-1.83,1.5-1.92,3.69-2.23,5.96l-.04.05c-2.34-2.02-3.89,2.45-2.93,3.71.55.73,1.61.77,2.4.54l.03.08c-.5,5.91-.16,11.29-.17,17.21l.09.16c-.78.49-.93,1.2-1.23,2,0,0-7.47-.19-9.45,2.09-3.54,4.09-12.35,14.28-12.66,14.29-.31,0-2.97-4.35-7.42-15.33h-.24c.88-4.57.03-7.32-.33-8.07-.19-.38-.63-.92-1.12-.82-1.3.26-.02,3.05-.13,3.29-.04.08-.57.21-1.02.61l-.16-.18c-.2-.69-3.8-3.58-6.55-4.08-.51-.09-1.65-.32-1.92.62l-.04.23c-1.17-.19-2.11-.05-2.3.53-.09.28.08.75.31.92l.12.17c-.52.31-.36,1,0,1.26.61.45,1.7.83,2.66,1.41,1.88,1.14,4.05,3.3,4.3,4.15v.17s-.14,0-.14,0c0,0,6.19,23.51,11.84,25.44,4.43,1.51,15.87-11.62,15.87-11.62,0,0-3.02,10.75-.5,29.96l.25-.07.02.06s1.29,4.96,4.61,9.29c1.9,2.48,4.48,4.75,7.86,5.76,6.55,1.95,20.41.58,30.58-.44,2.7-.27,5.97.44,8.23,1.95l27.05,19.66,6.26-6.42-23.61-25.17s-1.08-1.19-3.26-2.71l.04-.06c2.43-.8,3.49-.36,5.24.31l30.84,12.88.11.02c3.46,2.3,5.74,3.83,6.32,4.24h0s.03.02.03.02h.01s.07.06.08.07h0s1.44.98,1.44.98l13-19.07-1.53-1.04Z"/>
    <path d="m173.44,35.25H61.72v12.58c0,1.15-1.05,2.09-2.34,2.09h-1.45c-.02,2.07-.18,4.84-.91,4.27-.77-.6-1.3-2.88-1.57-4.31l-.22.04h-13.04c-1.29,0-2.34-.94-2.34-2.09v-12.58h-13.29c-4.74,0-8.57,3.84-8.57,8.57v117.2c0,4.74,3.84,8.57,8.57,8.57h146.88c4.74,0,8.57-3.84,8.57-8.57V43.82c0-4.74-3.84-8.57-8.57-8.57Zm-6.54,40.89l1.14-1s.03-.06,0-.09l-.91-1.21s0-.11.06-.1l1.49.27s.06-.01.07-.05l.38-1.47c.01-.06.09-.06.12-.01l.72,1.33s.05.04.08.03l1.39-.62c.05-.02.11.03.08.08l-.59,1.4s0,.07.03.08l1.35.7c.05.03.04.1-.01.12l-1.46.41s-.05.04-.05.07l.29,1.49c.01.06-.05.1-.1.06l-1.23-.89s-.06-.01-.09.01l-.98,1.16s-.11.02-.11-.04l-.07-1.51s-.03-.06-.06-.06l-1.52-.05c-.06,0-.08-.07-.04-.11Zm-.11,26.57l.81.79s.05.02.06,0l.85-.74s.08,0,.08.04l-.11,1.12s.01.05.04.05l1.11.2s.05.06.02.09l-.95.61s-.03.04-.02.06l.53.99s-.02.08-.06.07l-1.07-.36s-.05,0-.06.03l-.44,1.04s-.07.04-.09,0l-.39-1.06s-.03-.04-.06-.03l-1.09.3s-.07-.03-.05-.07l.59-.96s0-.05-.01-.06l-.91-.66s-.02-.08.02-.08l1.12-.14s.04-.02.04-.05l-.05-1.13s.05-.07.08-.04Zm-8.2-55.25l1.62-1.5s.05-.09.03-.13l-.94-2c-.04-.09.04-.19.14-.16l2.11.65s.1,0,.13-.04l1.26-1.82c.06-.08.18-.06.21.04l.49,2.16s.05.08.1.09l2.2.19c.1,0,.14.13.07.2l-1.62,1.5s-.05.09-.03.13l.94,2c.04.09-.04.19-.14.16l-2.11-.65s-.1,0-.13.04l-1.26,1.82c-.06.08-.18.06-.21-.04l-.49-2.16s-.05-.08-.1-.09l-2.2-.19c-.1,0-.14-.13-.07-.2Zm-16.8,21.15l.91-.21s.03-.02.03-.04l-.14-.93s.04-.06.06-.04l.73.58s.04.01.05,0l.64-.69s.07,0,.07.03v.94s.02.04.04.04l.93.07s.05.05.02.07l-.73.59s-.02.04,0,.05l.53.77s0,.07-.04.06l-.91-.21s-.04,0-.05.03l-.28.9s-.06.04-.07,0l-.41-.84s-.03-.03-.05-.02l-.87.34s-.06-.02-.05-.05l.4-.85s0-.04-.02-.05l-.81-.47s-.02-.06.01-.07Zm-7.81,26.27l1.09-1.01s.03-.06.02-.09l-.63-1.35c-.03-.06.03-.13.09-.11l1.42.44s.07,0,.09-.03l.85-1.22c.04-.05.12-.04.14.03l.33,1.45s.04.06.07.06l1.48.12c.07,0,.09.09.05.13l-1.09,1.01s-.03.06-.02.09l.63,1.35c.03.06-.03.13-.09.11l-1.42-.44s-.07,0-.09.03l-.85,1.22c-.04.05-.12.04-.14-.03l-.33-1.45s-.04-.06-.07-.06l-1.48-.12c-.07,0-.09-.09-.05-.13Zm-12.62-46.27l1.59-.37s.06-.04.05-.08l-.24-1.62c0-.06.06-.1.11-.06l1.28,1.02s.07.02.09,0l1.11-1.2s.12-.02.12.05v1.64s.03.07.07.07l1.63.12c.06,0,.09.08.04.12l-1.28,1.02s-.03.06-.01.09l.92,1.35c.03.05-.01.12-.07.11l-1.6-.36s-.07.01-.08.05l-.48,1.56c-.02.06-.1.07-.13,0l-.72-1.47s-.05-.05-.09-.03l-1.52.6c-.06.02-.11-.04-.09-.09l.7-1.48s0-.07-.03-.09l-1.42-.82c-.05-.03-.04-.11.02-.13Zm-31.22-3.4c2.31-2.58,4.79-1.59,6.89.61,4.08-1.71,8.19-3.04,8.81-1.83.63,1.24-2.72,2.91-7.04,4.17-3.28.95-7.12,1.66-10.19,1.75-.07,0-.1-.08-.05-.12l-.03-.02c.14-1.89.64-3.46,1.61-4.55Zm3.84,19.22s-.01.06-.04.05l-.75-.25s-.03,0-.04.02l-.31.73s-.05.03-.06,0l-.27-.74s-.02-.03-.04-.02l-.76.21s-.05-.02-.04-.05l.41-.67s0-.03,0-.04l-.64-.46s-.01-.06.02-.06l.78-.1s.03-.02.03-.03l-.04-.79s.03-.05.06-.03l.57.55s.03.01.04,0l.59-.52s.06,0,.05.03l-.08.79s.01.03.03.04l.78.14s.04.04.01.06l-.66.43s-.02.03-.01.04l.38.7Zm-45.08,6.68l.91-.21s.03-.02.03-.04l-.14-.93s.04-.06.06-.04l.73.58s.04.01.05,0l.64-.69s.07,0,.07.03v.94s.02.04.04.04l.93.07s.05.05.02.07l-.73.59s-.02.04,0,.05l.53.77s0,.07-.04.06l-.91-.21s-.04,0-.05.03l-.28.9s-.06.04-.07,0l-.41-.84s-.03-.03-.05-.02l-.87.34s-.06-.02-.05-.05l.4-.85s0-.04-.02-.05l-.81-.47s-.02-.06.01-.07Zm-24.95-22.12l.91-.21s.03-.02.03-.04l-.14-.93s.04-.06.06-.04l.73.58s.04.01.05,0l.64-.69s.07,0,.07.03v.94s.02.04.04.04l.93.07s.05.05.02.07l-.73.59s-.02.04,0,.05l.53.77s0,.07-.04.06l-.91-.21s-.04,0-.05.03l-.28.9s-.06.04-.07,0l-.41-.84s-.03-.03-.05-.02l-.87.34s-.06-.02-.05-.05l.4-.85s0-.04-.02-.05l-.81-.47s-.02-.06.01-.07Zm2.83,47.63l-.68.63s-.02.04-.01.06l.4.84s-.02.08-.06.07l-.89-.28s-.04,0-.05.02l-.53.77s-.08.02-.09-.02l-.21-.91s-.02-.04-.04-.04l-.93-.08s-.06-.05-.03-.08l.68-.63s.02-.04.01-.06l-.4-.84s.02-.08.06-.07l.89.28s.04,0,.05-.02l.53-.77s.08-.02.09.02l.21.91s.02.04.04.04l.93.08s.06.05.03.08Zm8.02,60.77l-1.62,1.5s-.05.09-.03.13l.94,2c.04.09-.04.19-.14.16l-2.11-.65s-.1,0-.13.04l-1.26,1.82c-.06.08-.18.06-.21-.04l-.49-2.16s-.05-.08-.1-.09l-2.2-.19c-.1,0-.14-.13-.07-.2l1.62-1.5s.05-.09.03-.13l-.94-2c-.04-.09.04-.19.14-.16l2.11.65s.1,0,.13-.04l1.26-1.82c.06-.08.18-.06.21.04l.49,2.16s.05.08.1.09l2.2.19c.1,0,.14.13.07.2Zm5.34-36.11l-1.29,1.2s-.04.07-.02.11l.75,1.59c.03.07-.03.15-.11.13l-1.68-.52s-.08,0-.1.04l-1.01,1.45c-.05.07-.15.05-.16-.03l-.39-1.72s-.04-.07-.08-.07l-1.76-.15c-.08,0-.11-.1-.05-.16l1.29-1.2s.04-.07.02-.11l-.75-1.59c-.03-.07.03-.15.11-.13l1.68.52s.08,0,.1-.04l1.01-1.45c.05-.07.15-.05.16.03l.39,1.72s.04.07.08.07l1.76.15c.08,0,.11.1.05.16Zm28.91,37.63l-1.72.39s-.07.04-.07.08l-.15,1.76c0,.08-.1.11-.16.05l-1.2-1.29s-.07-.04-.11-.02l-1.59.75c-.07.03-.15-.03-.13-.11l.52-1.68s0-.08-.04-.1l-1.45-1.01c-.07-.05-.05-.15.03-.16l1.72-.39s.07-.04.07-.08l.15-1.76c0-.08.1-.11.16-.05l1.2,1.29s.07.04.11.02l1.59-.75c.07-.03.15.03.13.11l-.52,1.68s0,.08.04.1l1.45,1.01c.07.05.05.15-.03.16Zm27.2-12.69l-.95.61s-.03.04-.02.06l.53.99s-.02.08-.06.07l-1.07-.36s-.05,0-.06.03l-.44,1.04s-.07.04-.09,0l-.39-1.06s-.03-.04-.06-.03l-1.09.3s-.07-.03-.05-.07l.59-.96s0-.05-.01-.06l-.91-.66s-.02-.08.02-.08l1.12-.14s.04-.02.04-.05l-.05-1.13s.05-.07.08-.04l.81.79s.05.02.06,0l.85-.74s.08,0,.08.04l-.11,1.12s.01.05.04.05l1.11.2s.05.06.02.09Zm27.77,16.34l-.95.61s-.03.04-.02.06l.53.99s-.02.08-.06.07l-1.07-.36s-.05,0-.06.03l-.44,1.04s-.07.04-.09,0l-.39-1.06s-.03-.04-.06-.03l-1.09.3s-.08-.03-.05-.07l.59-.96s0-.05-.01-.06l-.91-.66s-.02-.08.02-.08l1.12-.14s.04-.02.04-.05l-.05-1.13s.05-.07.08-.04l.81.79s.05.02.06,0l.85-.74s.08,0,.08.04l-.11,1.12s.01.05.04.05l1.11.2s.05.06.02.09Zm33.91-22.39h0s-.05-.03-.08-.06h-.01s-.03-.03-.03-.03h0c-.58-.41-2.86-1.93-6.32-4.24l-.11-.02-30.84-12.88c-1.75-.68-2.81-1.11-5.24-.31l-.04.06c2.18,1.52,3.26,2.71,3.26,2.71l23.61,25.17-6.26,6.42-27.05-19.66c-2.26-1.5-5.53-2.22-8.23-1.95-10.18,1.02-24.04,2.39-30.58.44-3.38-1.01-5.95-3.28-7.86-5.76-3.32-4.33-4.61-9.29-4.61-9.29l-.02-.06-.25.07c-2.52-19.21.5-29.96.5-29.96,0,0-11.45,13.13-15.87,11.62-5.65-1.93-11.84-25.44-11.84-25.44h.14s0-.17,0-.17c-.25-.84-2.42-3.01-4.3-4.15-.96-.58-2.06-.97-2.66-1.41-.35-.26-.51-.94,0-1.26l-.12-.17c-.23-.17-.41-.64-.31-.92.2-.58,1.13-.71,2.3-.53l.04-.23c.27-.94,1.41-.71,1.92-.62,2.75.5,6.36,3.4,6.55,4.08l.16.18c.44-.4.98-.53,1.02-.61.11-.24-1.17-3.03.13-3.29.49-.1.94.45,1.12.82.36.74,1.21,3.5.33,8.07h.24c4.45,10.98,7.11,15.34,7.42,15.33.31-.01,9.12-10.2,12.66-14.29,1.97-2.28,9.45-2.09,9.45-2.09.3-.8.45-1.51,1.23-2l-.09-.16c.01-5.92-.32-11.3.17-17.21l-.03-.08c-.8.23-1.85.19-2.4-.54-.96-1.27.59-5.73,2.93-3.71l.04-.05c.31-2.27.4-4.46,2.23-5.96,6.09-5,11.01,4.44,11.96,8.16.88,3.46-4.02,11.26-5.41,11.81-.17.07-.34.12-.51.15.52,2.25.66,5.03,1.61,7.03l-.04.1c.94.34,1.74,1.43,1.71,2.03,0,0,6.09.22,7.9,1.05,3.12,1.43,11.72,14.48,12.03,14.49.31.01,3.6-4.55,8.05-15.54h.28s0-.03,0-.03c-.81-4.65.13-7.58.51-8.31.19-.37.65-.91,1.14-.8,1.29.29-.05,3.05.05,3.3.03.07.47.2.88.53l.28-.07c.21-.68,3.88-3.5,6.64-3.94.51-.08,1.65-.28,1.9.67l.03.23c1.18-.16,2.11,0,2.29.58.09.28-.1.75-.33.91l-.28.09c.7.28.52,1.06.13,1.33-.62.43-1.72.79-2.7,1.35-1.9,1.1-4.15,3.45-4.42,4.29v.08s.14,0,.14,0c0,0-5.99,22.36-11.49,24.67-5.49,2.3-16.5-10.83-16.5-10.83h-.04c-.48,13.67,3.29,17.98,4.97,21.63h.03c20.9-7.51,29.56-6.73,37.38-2.09,7.43,4.4,28.08,19.53,28.08,19.53l-5.08,7.33.07.05,5.27-7.49c.6-.57,5.82-3.32,8.7-6.63,1.39-1.59,3.47-2.57,5.4-.67h0s1.53,1.04,1.53,1.04l-13,19.07-1.44-.98Zm16.25,5.87l-.73.59s-.02.04,0,.05l.53.77s0,.07-.04.06l-.91-.21s-.04,0-.05.03l-.28.9s-.06.04-.07,0l-.41-.84s-.03-.03-.05-.02l-.87.34s-.06-.02-.05-.05l.4-.85s0-.04-.02-.05l-.81-.47s-.02-.06.01-.07l.91-.21s.03-.02.03-.04l-.14-.93s.04-.06.06-.04l.73.58s.04.01.05,0l.64-.69s.07,0,.07.03v.94s.02.04.04.04l.93.07s.05.05.02.07Z"/>
  </g>
  <path class="cls-9" d="m170.85,121.05h0s-.04-.03-.04-.03l-13,19.07c-.58-.41-2.86-1.93-6.32-4.24l-.11-.02.03-.05.07.05,5.27-7.49c.6-.57,5.82-3.32,8.7-6.63,1.38-1.59,3.47-2.57,5.4-.67Z"/>
  <path d="m36.35,76.82h.24c4.45,10.98,7.11,15.34,7.42,15.33.31-.01,9.12-10.2,12.66-14.29,1.97-2.28,9.45-2.09,9.45-2.09.3-.8.45-1.51,1.23-2,.75-.47,6.86-1.3,10.25-.52.07.02.14.04.21.06.94.34,1.74,1.43,1.71,2.03,0,0,6.09.22,7.9,1.05,3.12,1.43,11.72,14.48,12.03,14.49.31.01,3.6-4.55,8.05-15.54h.28s6.14.21,6.14.21h.14s-5.99,22.36-11.49,24.67c-5.49,2.3-16.5-10.83-16.5-10.83h-.04c-.48,13.67,3.29,17.98,4.97,21.63h0s-33.5,9.71-33.5,9.71l-.25.07c-2.52-19.21.5-29.96.5-29.96,0,0-11.45,13.13-15.87,11.62-5.65-1.93-11.84-25.44-11.84-25.44h.14s6.17-.2,6.17-.2Z"/>
  <path class="cls-7" d="m115.29,122.65c2.43-.8,3.49-.36,5.24.31l30.84,12.88.03-.05,5.08-7.33s-20.65-15.12-28.08-19.53c-7.83-4.64-16.63-5.54-37.53,1.96"/>
  <path class="cls-7" d="m57.52,120.79s1.29,4.96,4.61,9.29c1.9,2.48,4.48,4.75,7.86,5.76,6.55,1.95,20.41.58,30.58-.44,2.7-.27,5.97.44,8.23,1.95l27.05,19.66,6.26-6.42-23.61-25.17s-1.08-1.19-3.26-2.71c-4.79-3.34-14.88-8.25-30.43-5.58"/>
  <g>
    <circle cx="79.03" cy="55.29" r=".42"/>
    <circle cx="73.42" cy="55.2" r=".42"/>
  </g>
  <line class="cls-7" x1="46.1" y1="40.94" x2="47.78" y2="40.94"/>
  <polygon class="cls-7" points="46.1 40.94 46.1 35.26 42.32 40.94 46.1 40.94"/>
  <line class="cls-7" x1="46.1" y1="44.29" x2="46.1" y2="40.94"/>
  <line class="cls-7" x1="57.91" y1="40.94" x2="59.59" y2="40.94"/>
  <polygon class="cls-7" points="57.91 40.94 57.91 35.26 54.12 40.94 57.91 40.94"/>
  <line class="cls-7" x1="57.91" y1="44.29" x2="57.91" y2="40.94"/>
  <ellipse class="cls-7" cx="50.93" cy="39.76" rx="2.16" ry="4.54"/>
  <path class="cls-1" d="m67.97,52.03c.31-2.27.4-4.46,2.23-5.96,6.09-5,11.01,4.44,11.96,8.16.88,3.46-4.02,11.26-5.41,11.81-.17.07-.34.12-.51.15-2.06.38-4.68-1.45-5.56-3.27"/>
  <path class="cls-4" d="m67.26,73.62c.01-5.92-.32-11.3.17-17.21"/>
  <path class="cls-4" d="m76.18,65.95c.02.08.04.16.06.24.52,2.25.66,5.03,1.61,7.03"/>
  <path class="cls-1" d="m68.79,53.08c-.29-.44-.58-.76-.86-1-2.34-2.02-3.89,2.45-2.93,3.71.55.73,1.61.77,2.4.54.2-.06.39-.13.55-.22"/>
  <path class="cls-1" d="m88.52,49.75c.14-1.89.64-3.46,1.61-4.55,2.31-2.58,4.79-1.59,6.89.61.61.63,1.18,1.37,1.71,2.15"/>
  <path class="cls-4" d="m97.02,45.81c-3.73,1.56-7.44,3.43-8.46,3.95,0,0-.01,0-.02.01-.04.04-.02.12.05.12,3.08-.09,6.91-.8,10.19-1.75,4.32-1.25,7.67-2.93,7.04-4.17-.62-1.21-4.72.13-8.81,1.83Z"/>
  <path class="cls-1" d="m74.46,52.96c-.51-.64-1.88-.63-2.43.19"/>
  <path class="cls-1" d="m79.79,53.08c-.51-.64-1.88-.63-2.43.19"/>
  <path class="cls-7" d="m74.19,62.6c.48-.88,2.13-1.15,2.64-.27"/>
  <path class="cls-1" d="m67.49,53.88c-.35.33-.95.63-1.56.62"/>
  <path class="cls-1" d="m77.32,53.32c-.49,1.22.09,3.14.27,4.41.12.86.31,2.53-1.17,1.98"/>
  <path class="cls-1" d="m69.07,122.04c.13,4.46-3.06,7.08-6.93,8.04-.89.22-1.82.35-2.75.4"/>
  <polygon class="cls-3" points="157.93 140.18 159.37 141.16 172.37 122.09 170.85 121.05 170.8 121.02 157.8 140.09 157.8 140.09 157.83 140.11 157.85 140.12 157.93 140.18"/>
  <path class="cls-7" d="m58.07,49.92h1.31c1.29,0,2.34-.94,2.34-2.09v-15.33c0-1.15-1.05-2.09-2.34-2.09h-17.18c-1.29,0-2.34.94-2.34,2.09v15.33c0,1.15,1.05,2.09,2.34,2.09h13.04"/>
  <path class="cls-7" d="m55.25,48.68s.07.5.2,1.2c.27,1.43.81,3.71,1.57,4.31.73.57.89-2.2.91-4.27.01-1.17-.02-2.12-.02-2.12"/>
  <path class="cls-7" d="m30.18,76.86c-.25-.84-2.42-3.01-4.3-4.15-.96-.58-2.06-.97-2.66-1.41-.35-.26-.51-.94,0-1.26.21-.13.54-.19,1.02-.14,0,0,3.04.69,5.01,2.62"/>
  <path class="cls-7" d="m33.6,71.65c-.2-.69-3.8-3.58-6.55-4.08-.51-.09-1.65-.32-1.92.62"/>
  <path class="cls-7" d="m30.2,71.08c-1.11-1.37-3.37-2.38-5.11-2.66-1.17-.19-2.11-.05-2.3.53-.09.28.08.75.31.92"/>
  <path class="cls-7" d="m33.18,73.56c-.12-.86.19-1.39.57-1.73.44-.4.98-.53,1.02-.61.11-.24-1.17-3.03.13-3.29.49-.1.9.46,1.12.82.4.66,1.28,6.11-.06,9.45"/>
  <path class="cls-7" d="m113.92,75.48c.27-.84,2.52-3.19,4.42-4.29.98-.56,2.08-.92,2.7-1.35.39-.27.57-1.06-.13-1.33-.21-.08-.49-.12-.87-.09,0,0-3.05.63-5.06,2.51"/>
  <path class="cls-7" d="m110.64,69.96c.21-.68,3.88-3.5,6.64-3.94.51-.08,1.65-.28,1.9.67"/>
  <path class="cls-7" d="m114.05,69.46c1.14-1.34,3.42-2.3,5.17-2.54,1.18-.16,2.11,0,2.29.58.09.28-.1.75-.33.91"/>
  <path class="cls-7" d="m111.02,71.88c.15-.95-.23-1.51-.66-1.85-.41-.33-.85-.46-.88-.53-.11-.25,1.24-3.01-.05-3.3-.49-.11-.94.43-1.14.8-.38.74-1.43,4.34-.27,8.98"/>
  <path class="cls-7" d="m61.64,35.25h111.8c4.74,0,8.57,3.84,8.57,8.57v117.2c0,4.74-3.84,8.57-8.57,8.57H26.56c-4.74,0-8.57-3.84-8.57-8.57V43.82c0-4.74,3.84-8.57,8.57-8.57h13.24"/>
  <path class="cls-5" d="m157.32,139.76c-.58-.41-5.61-4.51-5.63-4.48"/>
  <path class="cls-2" d="m151.63,135.22l4.51-6.44c.6-.57,6.42-3.75,9.3-7.06,1.38-1.59,3.47-2.57,5.4-.67h0s-12.91,19.13-12.91,19.13h0s-.05-.03-.08-.06"/>
  <polygon class="cls-3" points="141.29 162.36 142.52 163.6 158.95 147.4 157.65 146.08 157.61 146.04 141.19 162.25 141.18 162.25 141.21 162.28 141.22 162.29 141.29 162.36"/>
  <path class="cls-5" d="m140.77,161.83c-.49-.51-4.64-5.5-4.66-5.48"/>
  <path class="cls-5" d="m136.07,156.28l5.67-5.45c.7-.44,7.03-2.45,10.49-5.14,1.67-1.3,3.9-1.86,5.43.39h0s-16.36,16.28-16.36,16.28h0s-.04-.04-.07-.07"/>
  <path class="cls-6" d="m86.07,89.4s11.01,13.14,16.5,10.83c5.5-2.31,11.31-24.78,11.31-24.78l-6.15-.2c-4.45,10.99-7.96,15.65-8.27,15.64-.31,0-8.91-13.06-12.03-14.49-1.81-.83-7.9-1.05-7.9-1.05.03-.6-.77-1.7-1.71-2.03-.07-.02-.14-.05-.21-.06-3.38-.77-9.5.05-10.25.52-.78.49-.93,1.2-1.23,2,0,0-7.47-.19-9.45,2.09-3.54,4.09-12.35,14.28-12.66,14.29-.31,0-7.67-15.08-7.67-15.08l-6.02.16s5.91,23.31,11.55,25.23c4.43,1.51,15.87-11.62,15.87-11.62,0,0-3.02,10.75-.5,29.96l.25-.07,33.5-9.71h0c-1.69-3.65-5.45-7.96-4.97-21.63,0-.02,0-.04,0-.06"/>
</svg>