<?xml version="1.0" encoding="UTF-8"?>
<svg id="Layer_1" data-name="Layer 1" xmlns="http://www.w3.org/2000/svg" viewBox="0 0 200 200">
  <defs>
    <style>
      .cls-1, .cls-2, .cls-3, .cls-4, .cls-5, .cls-6, .cls-7, .cls-8 {
        stroke-width: .86px;
      }

      .cls-1, .cls-2, .cls-3, .cls-4, .cls-6, .cls-7, .cls-8 {
        fill: none;
      }

      .cls-1, .cls-2, .cls-4, .cls-5, .cls-7 {
        stroke: #000;
      }

      .cls-1, .cls-3, .cls-4, .cls-5, .cls-8 {
        stroke-miterlimit: 10;
      }

      .cls-1, .cls-3, .cls-7 {
        stroke-linecap: round;
      }

      .cls-2, .cls-6, .cls-7 {
        stroke-linejoin: round;
      }

      .cls-3, .cls-6, .cls-8 {
        stroke: #fff;
      }

      .cls-9 {
        fill: #ffce00;
      }
    </style>
  </defs>
  <path d="m155.24,145.27l-20.33,10.98v-.02s-3.6-6.64-3.6-6.64l.06-.1,7.98-4.17s0-.01-.01-.04h.15c.3-.09,1.3-.14,2.65-.26,2.25-.2,5.46-.58,8.01-1.59,1.54-.61,3.28-.69,4.37.55.27.31.51.71.68,1.2.01.03.02.06.03.09Z"/>
  <path class="cls-5" d="m118.26,158.28h0c.3.07,1.21.49,2.45,1.03,2.07.89,5.08,2.09,7.8,2.41,1.64.19,3.22.95,3.59,2.56.09.4.11.86.03,1.38,0,.03,0,.06-.02.1h-23.11v-.02s0-7.55,0-7.55l9.05.02h.18s0,.05,0,.07Z"/>
  <path d="m117.52,131.64l-.07-1.88h.01c.02.6.04,1.22.06,1.88Z"/>
  <path d="m90.78,87.21c.71-.59,1.16-1.34,1.19-2.11.03-.69-.5-1.22-1.18-1.18-.04.11-.11.22-.19.32l.1-1.81.2-3.66c.03-.49-.29-.91-.69-.91h-.19l.62-4.25,4.62-.02.1-1.32h-5.89l-.83,5.59h-2.8c-.09-1.32-1.2-2.37-2.54-2.37s-2.55,1.14-2.55,2.55,1.04,2.45,2.36,2.54l.08,1.55.08,1.53h-.15c-1.43.11-2.66,1.51-2.62,2.68l.1,5.05c-.09.03-.18.06-.27.09-4.98,1.65-9.38,2.76-12.81,3.23-3.44.47-5.9.28-7.02-.65-4.5-3.75,3.4-26.53,7.13-30.2,2.17-2.13,6.58-3.06,11.98-4.11,0,0,.31-1.2,1.24-1.67.02,0,.03-.02.05-.02,0,0,.02,0,.03-.01,1.07-.4,6.84-.99,10.09-.09.13.04.25.08.37.13.81.33,1.3.95,1.35,1.67,0,0,8.09.9,9.53,2.58,3.68,4.3,7.44,8.7,10.26,11.72.19.21,5.48-4.73,7.32-9.56l.06.02s2.01,3.05,5.42,2.44h.05c-.27.55-9.31,18.58-13.6,16.99-3.63-1.34-7.57-4.3-11.76-7.82-1.68-1.41,4.85,27.83,4.92,28.47-.43,0-3.81.03-4.26.04l-14.55.08h-.06c-.67,0-1.36,0-2.06.01l-17.47.09c.08-4.27.61-7.86.86-9.36,3.33-.64,8.54-2.41,12.96-3.9l.26.08c1.16.51,2.25.86,3.27,1.09l.11,1.99c.03.45.33.79.69.79h4.85c.36,0,.66-.35.69-.79l.12-2.22c1.04-.44,1.62-1.05,1.62-1.53,0-.46-.43-1.06-1.07-.93-.02,0-.04,0-.06.01l-.04-.05s.05-.03.07-.05c.66-.45,1.06-1.02,1.09-1.6.03-.54-.44-1.17-1.14-1.08l-.05-.06Z"/>
  <line class="cls-4" x1="118.1" y1="150.71" x2="132.07" y2="150.71"/>
  <rect class="cls-9" x="44.82" y="150.71" width="40.45" height="8.12"/>
  <polyline class="cls-4" points="149.19 150.71 155.25 150.71 155.25 158.83 44.82 158.83 44.82 150.71 107.45 150.71"/>
  <polyline class="cls-4" points="132.92 128.07 161.79 128.07 161.79 172.22 38.24 172.22 38.24 128.07 102.07 128.07"/>
  <circle class="cls-4" cx="53.97" cy="132.38" r="1.61"/>
  <circle class="cls-4" cx="48.28" cy="132.38" r="1.61"/>
  <circle class="cls-4" cx="42.59" cy="132.38" r="1.61"/>
  <path class="cls-7" d="m137.98,47.46c-.36,1.53-2.9,14.02-3.44,16.77"/>
  <path class="cls-7" d="m134.51,64.23c-.89-.78-3.73-1.77-5.92-1.07"/>
  <path class="cls-7" d="m121.36,62.8c-5.23-1.72-10.37,1.44-10.37,1.44.42-5.03.83-17.77.83-17.77,8.39-3.81,13.19,1.44,13.73,2.07.03.04.05.06.05.06,2.2-3.62,9.32-3.82,12.36-1.15"/>
  <path class="cls-4" d="m88.8,77.87h-5.09c-.4,0-.72.42-.69.91l.1,1.82.08,1.55.08,1.53.05.9v.08"/>
  <path class="cls-4" d="m90.61,84.25l.1-1.81.2-3.66c.03-.49-.29-.91-.69-.91h-.4"/>
  <path class="cls-4" d="m83.89,92.68v.06s.12,1.99.12,1.99c.03.45.33.79.69.79h4.85c.36,0,.66-.35.69-.79l.12-2.22v-.07"/>
  <path class="cls-4" d="m83.3,84.49s.02.06.03.08c.86,2.24,6.07,1.16,7.27-.32.09-.11.15-.22.19-.32,0-.02.01-.04.02-.05"/>
  <path class="cls-1" d="m90.79,83.92s0,0,.01,0c.67-.05,1.2.49,1.18,1.18-.03.77-.48,1.52-1.19,2.11-1.11.91-2.86,1.43-4.7,1.06"/>
  <path class="cls-1" d="m90.84,87.28c.7-.09,1.17.54,1.14,1.08-.03.58-.43,1.15-1.09,1.6-.02.02-.05.03-.07.05-1.08.71-2.79,1.12-4.63.83"/>
  <path class="cls-1" d="m90.85,90.05s.04,0,.06-.01c.64-.12,1.08.47,1.07.93,0,.49-.58,1.09-1.62,1.53-1.39.59-3.61.89-6.46.23-1.01-.23-2.11-.59-3.27-1.09"/>
  <path class="cls-1" d="m83.27,82.14c1.97-.79,2.53,1.04,4.52,1.46h0c.37.08.79.11,1.27.06.05,0,.09-.01.14-.02h0c.58-.12,1.29-.66,1.49-1.2"/>
  <polyline class="cls-7" points="89.19 83.56 90.02 77.87 90.64 73.62 95.26 73.6 95.37 72.28 89.48 72.28 88.65 77.87 87.82 83.44"/>
  <path class="cls-2" d="m83.31,80.61c-.06,0-.12,0-.19,0-1.32-.09-2.36-1.2-2.36-2.54s1.14-2.55,2.55-2.55,2.45,1.05,2.54,2.37c0,.06,0,.12,0,.18"/>
  <path class="cls-4" d="m86.08,104.72c-.67,0-1.36,0-2.06.01-.07,0-.13,0-.2,0"/>
  <path class="cls-1" d="m81.91,36.64c.13-.84.27-1.82.48-2.82.36-1.7.92-3.43,1.93-4.53,2.33-2.53,4.77-1.53,6.83.65.57.61,1.11,1.3,1.61,2.05,1.69,2.5,2.93,5.48,3.3,7.06.83,3.47-4.18,11.2-5.58,11.73-.17.06-.34.11-.52.14-2.07.35-4.66-1.52-5.51-3.35"/>
  <path class="cls-4" d="m80.88,57.92c.1-5.82-.16-11.11.42-16.91"/>
  <path class="cls-4" d="m89.91,50.67c.02.08.04.16.05.24.47,2.29.58,5.11,1.45,7.18l.05.12"/>
  <path class="cls-1" d="m82.71,37.7c-.3-.46-.59-.8-.87-1.04-2.29-1.99-3.89,2.42-2.95,3.7.49.66,1.38.77,2.13.63.09-.02.18-.04.26-.06h0c.2-.06.39-.13.55-.21"/>
  <path class="cls-4" d="m92.74,31.98s.01,0,.02,0c.56-.04,8.35-1.51,7.27-3.7-.62-1.25-4.75,0-8.88,1.65-3.93,1.56-7.85,3.46-8.75,3.88-.06.03-.11.05-.15.07"/>
  <path class="cls-1" d="m91.68,39.61c.74-.39,1.62-.34,2.46-.23"/>
  <path class="cls-1" d="m89.21,39.68c-.51-.51-2-.47-2.46.16"/>
  <path class="cls-1" d="m81.4,38.48c-.35.32-.96.61-1.57.6"/>
  <path class="cls-1" d="m91.65,39.62c-.51,1.11.05,2.86.21,4.01.11.79.27,2.31-1.2,1.78"/>
  <g>
    <path class="cls-4" d="m117.35,126.5c-.09-2.18-.2-3.85-.35-5.18-1.17-10.38-9.81-16.5-30.86-16.6"/>
    <path class="cls-4" d="m118.26,158.54c0-.09,0-.17,0-.26,0-.03,0-.05,0-.08-.21-6.48-.36-11.87-.47-16.38,0-.23-.01-.45-.02-.67-.1-3.76-.17-6.89-.24-9.51-.02-.66-.04-1.28-.06-1.88-.04-1.2-.07-2.27-.11-3.25h0"/>
    <path class="cls-4" d="m102.79,131.58c-.02-.06-.04-.14-.06-.22-.05-.18-.12-.41-.19-.65-.27-.93-.62-2.18-.74-2.63h-19.57c-.43.01-.85.01-1.26,0-6.39-.21-10.06-3.72-12.1-8.4-1.97-4.51-2.42-10.11-2.33-14.86.08-4.27.61-7.86.86-9.36.07-.41.12-.66.13-.74,0-.02,0-.02,0-.02"/>
    <path class="cls-4" d="m118.07,158.21l-9.05-.02c-1.06-6.19-2.29-11.68-3.46-16.36-1.04-4.15-2.03-7.66-2.83-10.46-.06-.22-.12-.44-.19-.65"/>
    <path class="cls-4" d="m137.39,140.17s0-.01,0-.02c-1.31-3.43-3.06-8.03-4.6-12.08-1.72-4.52-3.19-8.34-3.47-9.04-4.48-11.14-4.91-14.41-27.31-14.41-.43,0-.87,0-1.32,0l-14.55.08h-2.12s-17.47.1-17.47.1h-.01"/>
    <path class="cls-4" d="m117.34,126.49s0,0,0,0h0c.66,1.37,2.11,3.87,3.87,6.79,1.61,2.66,3.48,5.68,5.27,8.52,1.84,2.93,3.68,5.72,4.95,7.71l7.9-4.21s0-.01-.01-.04c-.09-.24-.59-1.54-1.31-3.46-.19-.51-.41-1.07-.63-1.66"/>
  </g>
  <path class="cls-1" d="m86.14,46.14c.38,1.48,2.5,1.64,3.01,1.03"/>
  <path class="cls-1" d="m125.73,64.35c.08-.1.15-.21.21-.31,1.42-2.29.18-4.55.28-5.21.22-1.56,1.79-1.07,2.19,1.15.2,1.14.26,2.21.13,3.17-.25,1.91-1.22,3.35-3.13,3.81h0c-.27.55-9.31,18.58-13.6,16.99-3.63-1.34-7.57-4.3-11.76-7.82-1.68-1.41,5.05,27.92,5.11,28.56,0,0-3.13-.04-3.13-.04"/>
  <path class="cls-1" d="m123.57,63.2c-.07.12-.14.23-.22.35"/>
  <path class="cls-1" d="m125.7,64.32c.08-.08.16-.18.23-.29,1.1-1.73.37-6.4-1.1-6.61-.13-.02-.27,0-.41.05-1.73.68.9,2.72-.85,5.72"/>
  <path class="cls-1" d="m123.35,63.57c.08-.13.16-.25.22-.37,0,0,0,0,0,0,.6-1.09.49-1.91.38-2.54-.09-.54-.63-2.12-1.22-2.36-.5-.21-1.39.14-1.06,1.04.84,2.31.4,3.11-.24,3.56-.53.37-1.2.52-1.39,1.1-.06.17-.11.33-.18.5-1.84,4.83-7.12,9.77-7.32,9.56-2.82-3.02-6.57-7.41-10.26-11.72-1.44-1.68-9.53-2.58-9.53-2.58-.05-.72-.54-1.33-1.35-1.67-.12-.05-.24-.09-.37-.13-3.26-.9-9.03-.31-10.09.09-.01,0-.02,0-.03.01-.02,0-.04.02-.05.02-.94.46-1.24,1.67-1.24,1.67-5.4,1.05-9.82,1.98-11.98,4.11-3.73,3.67-11.64,26.45-7.13,30.2,1.12.93,3.59,1.11,7.02.65,3.43-.47,7.82-1.58,12.81-3.23.09-.03.18-.06.27-.09l-.1-5.05c-.04-1.18,1.19-2.57,2.62-2.67"/>
  <polyline class="cls-7" points="125.57 48.39 125.56 48.54 124.84 57.36"/>
  <path class="cls-1" d="m119.93,64.52s2.01,3.05,5.42,2.44"/>
  <path class="cls-6" d="m66.43,95.62c.3-.04.63-.1.98-.16,3.33-.64,8.54-2.41,12.96-3.9.41-.14.82-.27,1.22-.41"/>
  <path d="m93.51,41.08c.22,0,.4.18.4.4s-.18.4-.4.4-.4-.18-.4-.4.18-.4.4-.4Z"/>
  <path d="m88.65,41.08c.22,0,.4.18.4.4s-.18.4-.4.4-.4-.18-.4-.4.18-.4.4-.4Z"/>
  <polygon class="cls-7" points="109.01 165.91 109.01 167.66 132.16 167.66 132.16 165.76 132.12 165.76 109.02 165.76 109.01 165.76 109.01 165.91"/>
  <line class="cls-8" x1="135.08" y1="156.18" x2="147.26" y2="149.62"/>
  <polygon class="cls-7" points="134.98 156.39 135.8 157.92 156.17 146.92 155.27 145.25 155.24 145.27 134.91 156.25 134.9 156.25 134.98 156.39"/>
  <path class="cls-1" d="m74.59,112.01c.11,3.97-2.41,6.49-5.71,7.67-1.25.45-2.61.7-3.98.77"/>
  <path class="cls-7" d="m139.49,145.28c.3-.09,1.3-.14,2.65-.26,2.25-.2,5.46-.58,8.01-1.59,1.54-.61,3.28-.69,4.37.55.27.31.51.71.68,1.2.01.03.02.06.03.09,0,.02.01.03.02.05l-19.99,10.85-3.7-6.47,7.93-4.42Z"/>
  <path class="cls-3" d="m81.52,85.67c-2.29.42-10.85,1.69-13.45,2.06-.16.02,1.04-6.82,3.85-13.07"/>
  <line class="cls-4" x1="136.09" y1="136.54" x2="161.58" y2="136.54"/>
  <line class="cls-4" x1="117.69" y1="136.54" x2="123.1" y2="136.54"/>
  <line class="cls-4" x1="38.21" y1="136.54" x2="104.17" y2="136.54"/>
</svg>