<?xml version="1.0" encoding="UTF-8"?>
<svg id="Layer_1" data-name="Layer 1" xmlns="http://www.w3.org/2000/svg" viewBox="0 0 200 200">
  <defs>
    <style>
      .cls-1, .cls-2, .cls-3, .cls-4, .cls-5 {
        fill: none;
        stroke-width: .86px;
      }

      .cls-1, .cls-2, .cls-3, .cls-5 {
        stroke: #000;
      }

      .cls-1, .cls-3 {
        stroke-miterlimit: 10;
      }

      .cls-1, .cls-5 {
        stroke-linecap: round;
      }

      .cls-2, .cls-4, .cls-5 {
        stroke-linejoin: round;
      }

      .cls-4 {
        stroke: #fff;
      }

      .cls-6 {
        fill: #fc0;
      }
    </style>
  </defs>
  <g>
    <path d="m97.9,185.03v.05h0c-.49-2.67,1.5-3.84,3.59-4.09,1.02-.12,2.08-.36,3.12-.66,3.43-1,6.64-2.65,7.26-2.79h0s9.13-.01,9.13-.01h.04c-.04,4.09-.07,6.79-.06,7.5h-23.08Z"/>
    <path d="m97.87,185.1h-.03v-.05h-16.16v.03c-.47-2.66,1.5-3.82,3.6-4.07,4.35-.51,9.57-3.28,10.38-3.45h-.02s8.77-.01,8.77-.01h.15c-.02,1.55-.02,2.49-.01,2.67l.04.13c-1.04.3-2.1.54-3.12.66-2.1.25-4.08,1.42-3.59,4.09Z"/>
    <path d="m84.52,87.57c.95-6.64,1.99-13.2,2.69-16.97,0,0-7.31,4.07-8.07,7.47-.28,1.25,3.81,7.48,5.37,9.49h.01Zm29.7-7.73c-1.03.15-2.04.25-2.93.32-.37-.59-1.23-1-2.23-1-1.08,0-2,.48-2.31,1.14-4.44.04-6.73.44-7.45.86-1.58.92-2.48,1.91-2.43,3.77.04,1.45.52,3.42,1.35,4.68,0,.01.02.03.02.04.13.2.27.37.42.53.62.66,1.42.99,2.28,1.02.36.01,1.56-.22,1.69-.67.1-.33-.24-.87-.45-1.05-.45-.38-.95-.25-1.47-.32-1.19-1.03,2.7-2.7,6.61-2.66h0c.29,0,.6.01.92.01.73,0,1.53,0,2.37-.03,1.12-.03,2.32-.1,3.56-.2-.25-.63-1.34-3.7.05-6.42v-.02Zm5.28-1.43c.4-.21.74-.43,1.02-.69,2.19-2,1.97-5.15-1.63-7.91,0,0,.27,4.47.57,8.51l.04.08Zm.47,7.1v.05c.69,9.25,1.54,20.05,1.65,21.84l-39.36.09c.04-1.8.34-4.94.78-8.7.39-3.32.9-7.12,1.43-10.9h-.1c-1.45,1.43-2.88,3.11-3.31,5.17-.09.43,0,1.03.07,1.65h-.07c-7.25-5.15-11.74-12.24-13.08-17.33-1.5-5.72,12.79-16.64,16.21-18.99,3.79-2.61,12.17-3.88,12.17-3.88.32-.83.5-1.58,1.3-2.07.04-.03.11-.05.18-.08,1.3-.42,7.22-.65,10.55-.05.04,0,.08.01.11.02.8.15,1.31,1.5,1.26,2.18,0,0,8.77.58,10.92,1.8,2.9,1.65,14.31,16.37,11.37,22.57-1.72,3.64-6.73,5.61-12.09,6.63Z"/>
  </g>
  <path class="cls-3" d="m110.01,82.48c-.16,2.23.68,4.16.68,4.16"/>
  <path class="cls-3" d="m107.64,82.32c-.22,2.29.66,4.39.66,4.39"/>
  <path class="cls-2" d="m114.05,86.26c-1.96.11-5.25.28-6.74.25"/>
  <path class="cls-3" d="m104.83,153.32c-.12,14.45-.32,26.2-.28,26.9"/>
  <path class="cls-2" d="m119.98,85.57c.68,9.25,1.53,20.05,1.64,21.84l-39.36.09c.14-6.21,3.39-28.47,4.95-36.9,0,0-7.36,4.07-8.12,7.47-.28,1.25,3.86,7.48,5.42,9.49"/>
  <path class="cls-3" d="m83.1,98.73c-.97,1.22-3.16,1.87-4.66,1.3-1.28-.48-1.83-1.14-.97-2.09.8-.89,1.91-.21,2.89-.49,1.64-.46.45-3.15.71-4.39.43-2.06,1.86-3.74,3.31-5.18"/>
  <path class="cls-2" d="m118.94,70.65c-.03-.53-.05-.83-.05-.83,3.59,2.76,3.81,5.91,1.62,7.91-1.3,1.18-6.29,2.14-6.29,2.14-1.56,3.05-.12,6.4-.12,6.4,7.29-.5,15.51-2.22,17.95-7.37,2.94-6.2-8.47-20.92-11.37-22.57-2.15-1.22-10.92-1.8-10.92-1.8.05-.68-.45-2.03-1.26-2.18-3.51-.66-10.08-.36-10.85.11s-.98,1.24-1.3,2.07c0,0-8.38,1.28-12.17,3.88-3.42,2.35-17.71,13.28-16.21,18.99,1.33,5.08,5.82,12.17,13.08,17.34"/>
  <path class="cls-2" d="m119.46,78.33c-.19-2.65-.42-6.11-.52-7.75"/>
  <path class="cls-3" d="m106.83,80.31c-4.49.03-6.8.44-7.53.86-1.58.92-2.48,1.91-2.43,3.77.05,1.7.7,4.08,1.79,5.25.62.66,1.42.99,2.28,1.02.36.01,1.56-.22,1.69-.67.1-.33-.24-.87-.45-1.05-.45-.38-.95-.25-1.47-.32-1.19-1.04,2.77-2.73,6.71-2.66"/>
  <ellipse class="cls-3" cx="109.06" cy="80.81" rx="2.42" ry="1.65"/>
  <path class="cls-1" d="m114.77,110.95c-.16,5.48,4.71,8.19,9.68,8.43"/>
  <path class="cls-5" d="m99.25,116c.67,21.86,6.88,43.43,12.55,61.44l.05.12c-.81.18-6.02,2.94-10.38,3.45-2.1.25-4.08,1.41-3.59,4.09l23.09.11c-.09-1.31.68-48.56.3-77.49"/>
  <path class="cls-5" d="m83.2,107.88c.62,27.6,6.66,51.3,12.44,69.67h.02c-.81.19-6.02,2.95-10.38,3.46-2.1.25-4.08,1.41-3.59,4.09h16.38"/>
  <path class="cls-1" d="m98.56,30.94c.31-2.27.72-5.62,2.3-7.38,5.07-5.66,10.94,5.87,11.89,9.58.88,3.46-4.02,11.26-5.41,11.81-2.11.85-5.12-1.15-6.08-3.12"/>
  <path class="cls-3" d="m97.85,52.53c.01-5.92-.32-11.3.17-17.21"/>
  <path class="cls-3" d="m106.77,44.86c.56,2.29.68,5.2,1.67,7.27"/>
  <path class="cls-1" d="m99.38,31.99c-2.79-4.12-4.86,1.3-3.78,2.71.69.91,2.17.75,2.95.32"/>
  <path class="cls-3" d="m109.32,26.13c.34,0,8.37-1.6,7.24-3.8-1.29-2.51-16.75,5.43-17.7,5.85"/>
  <path class="cls-1" d="m105.05,33.83c-.62-.37-1.88-.24-2.46.17"/>
  <path class="cls-1" d="m110.39,33.83c-.62-.37-1.88-.24-2.46.17"/>
  <path class="cls-5" d="m106.46,42.64c.64-.77,2.04-.14,2.64.26"/>
  <path class="cls-1" d="m98.07,32.79c-.35.33-.95.63-1.56.62"/>
  <circle cx="103.94" cy="35.28" r=".42"/>
  <circle cx="109.13" cy="35.28" r=".42"/>
  <path class="cls-1" d="m107.91,33.2c-.49,1.22.09,3.14.27,4.41.12.86.31,2.53-1.17,1.98"/>
  <line class="cls-3" x1="95.27" y1="177.55" x2="104.41" y2="177.55"/>
  <line class="cls-3" x1="111.83" y1="177.55" x2="120.97" y2="177.55"/>
  <rect class="cls-5" x="97.87" y="185.05" width="23.08" height="1.9"/>
  <rect class="cls-5" x="81.67" y="185.05" width="16.17" height="1.9"/>
  <path class="cls-5" d="m98.31,89.75c-.44-.5-.4-1.71-.18-2.3.27-.73.9-1.4,1.56-1.8"/>
  <path class="cls-5" d="m97.43,87.63c-.41-.48-.37-1.63-.16-2.19.26-.7.84-1.33,1.46-1.71"/>
  <path class="cls-3" d="m78.34,97.39c-.11-1.58,2.08-1.22,2.83-.87"/>
  <path class="cls-3" d="m79.51,96.09c-.12-1.03.98-.94,1.55-.85"/>
  <path class="cls-3" d="m111.24,80.13s2.04-.06,2.92-.22"/>
  <path class="cls-4" d="m120.02,77.22c-1.66,1.14-5.34,1.83-5.34,1.83-2.46,3.51-.33,7.86-.32,7.86,2.11-.12,3.79-.3,6.22-.72"/>
  <path class="cls-4" d="m111.46,177.67c-.83.21-5.65,2.83-10,3.34-2.1.25-3.64,1.35-3.6,4.42"/>
  <path class="cls-3" d="m85.04,20.44v-2.77h-12.79v2.77c0,1.91,1.17,3.6,2.94,4.57,0,0,.82.45.87,1.31.05.82-.86,1.3-.86,1.3-1.76.96-2.93,2.63-2.95,4.53v2.8s12.79,0,12.79,0v-2.8h0c-.02-1.9-1.19-3.57-2.95-4.53,0,0-.87-.43-.87-1.31,0-.74.86-1.3.86-1.3,1.77-.97,2.95-2.66,2.95-4.58Z"/>
  <rect class="cls-3" x="71.45" y="34.96" width="14.38" height="2.01" rx="1" ry="1"/>
  <rect class="cls-3" x="71.45" y="15.66" width="14.38" height="2.01" rx="1" ry="1"/>
  <path class="cls-6" d="m79.76,27.88v-1.64c0-.81.98-1.64,1.66-2.08.95-.61,1.68-1.53,2.06-2.61.29-.83-.33-1.7-1.21-1.7h-7.26c-.88,0-1.5.87-1.21,1.7.38,1.08,1.11,2,2.06,2.61.68.44,1.83,1.2,1.83,2.01l-.03,1.74c0,.63-1.05,1.21-1.59,1.53-1.43.83-2.42,2.33-2.54,4.07-.01.2.14.37.34.37h9.57c.18,0,.33-.16.32-.34-.11-1.75-1.11-3.26-2.54-4.1-.54-.32-1.46-.94-1.46-1.57Z"/>
</svg>